# xmcd
#
# Track frame offsets:
#	150
#	24600
#	42000
#	60675
#	73050
#	89587
#	114225
#	130462
#	140925
#	148425
#	158100
#	174150
#	187125
#	203625
#	215250
#	242062
#	257100
#	273637
#
# Disc length: 3766 seconds
#
# Revision: 2
# Processed by: cddbd v1.5.2PL0 Copyright (c) Steve Scherf et al.
# Submitted via: audiograbber 1.83.01
#
DISCID=1d0eb412
DTITLE=Various Artist - Louisiana Scrapbook
DYEAR=1987
DGENRE=Jazz
TTITLE0=Dirty Dozen Brass Band - Mardi Gras In New Orleans
TTITLE1=Irma Thomas - The New Rules
TTITLE2=Johnny Adams - She Said The Same Things To Me
TTITLE3=Johnny Adams - We Don't See Eye To Eye
TTITLE4=Phillip Walker - Wondering
TTITLE5=Clarence Gatemouth Brown - Song For Renee
TTITLE6=Beausoleil - It's You I Love
TTITLE7=Jo-El Sonnier - Louisiana Blues
TTITLE8=D.L. Menard - The Bachelor's Life
TTITLE9=Marcia Ball - Don't You Know I Love You
TTITLE10=Buckwheat Zydeco - Think It Over One More Time
TTITLE11=Lonesome Sundown and Phillip Walker - Steppin' Up In Class
TTITLE12=Alvin Red Tyler - No Relation
TTITLE13=James Booker - One For The Highway
TTITLE14=Walter Wolfman Washington - You Got Me Worried
TTITLE15=Irma Thomas - Gonna Cry "Til My Tears Run Dry 
TTITLE16=Dirty Dozen Brass Band - The Flintstones Meets The President
TTITLE17=Tuts Washington - When The Saints Go Marching In
EXTD=YEAR: 1987
EXTT0=
EXTT1=
EXTT2=
EXTT3=
EXTT4=
EXTT5=
EXTT6=
EXTT7=
EXTT8=
EXTT9=
EXTT10=
EXTT11=
EXTT12=
EXTT13=
EXTT14=
EXTT15=
EXTT16=
EXTT17=
PLAYORDER=
